<?xml version="1.0" encoding="UTF-8"?>
<svg version="1.1" xmlns="http://www.w3.org/2000/svg" width="288" height="288">
<path d="M0 0 C1.23169767 0.93670694 2.46490359 1.87143238 3.69921875 2.8046875 C5.00890327 3.80586639 6.3174992 4.80847093 7.625 5.8125 C8.25462646 6.29323975 8.88425293 6.77397949 9.53295898 7.26928711 C11.06034392 8.46541659 12.53555977 9.72758291 14 11 C14 11.66 14 12.32 14 13 C14.556875 13.226875 15.11375 13.45375 15.6875 13.6875 C18.66159588 15.37550036 20.72008865 17.46676517 23 20 C23 20.66 23 21.32 23 22 C23.89972534 22.3856311 23.89972534 22.3856311 24.81762695 22.77905273 C27.21842709 24.1222009 28.29967178 25.33036989 29.91796875 27.53515625 C30.44583984 28.25348633 30.97371094 28.97181641 31.51757812 29.71191406 C32.34418945 30.8754541 32.34418945 30.8754541 33.1875 32.0625 C34.04698242 33.26664551 34.04698242 33.26664551 34.92382812 34.49511719 C43.33285449 46.51541076 49.59239215 59.00759411 54 73 C54.28359375 73.845625 54.5671875 74.69125 54.859375 75.5625 C63.60256808 102.68424181 63.60924357 132.86400189 55 160 C54.73703125 160.90105469 54.4740625 161.80210937 54.203125 162.73046875 C49.09450356 179.33348844 40.82314394 194.42270326 29.796875 207.80859375 C27.97659504 209.97405947 27.97659504 209.97405947 26.390625 212.28515625 C25.93171875 212.85105469 25.4728125 213.41695312 25 214 C24.34 214 23.68 214 23 214 C22.773125 214.556875 22.54625 215.11375 22.3125 215.6875 C20.62449964 218.66159588 18.53323483 220.72008865 16 223 C15.34 223 14.68 223 14 223 C13.74798828 223.5976416 13.49597656 224.1952832 13.23632812 224.81103516 C11.83605519 227.29027038 10.52534332 228.3765736 8.21875 230.0234375 C7.4644873 230.56661621 6.71022461 231.10979492 5.93310547 231.66943359 C5.13018066 232.23227051 4.32725586 232.79510742 3.5 233.375 C2.67773926 233.95717285 1.85547852 234.5393457 1.00830078 235.13916016 C-30.50273291 257.29097443 -69.21753839 266.94960665 -107.46240234 260.34643555 C-114.44742413 259.02687546 -121.23020711 257.16234171 -128 255 C-128.96679688 254.72671875 -129.93359375 254.4534375 -130.9296875 254.171875 C-146.94415527 249.39791442 -160.77134039 239.94386561 -174 230 C-174.98484375 229.26394531 -175.9696875 228.52789062 -176.984375 227.76953125 C-177.64953125 227.18558594 -178.3146875 226.60164062 -179 226 C-179 225.34 -179 224.68 -179 224 C-179.57492188 223.74863281 -180.14984375 223.49726563 -180.7421875 223.23828125 C-198.48226311 213.50886262 -211.12450825 187.15559539 -218 169 C-218.48210937 167.97132813 -218.96421875 166.94265625 -219.4609375 165.8828125 C-221.57328241 160.9885492 -222.53705434 155.82296261 -223.625 150.625 C-223.8415625 149.635 -224.058125 148.645 -224.28125 147.625 C-231.85336016 112.19500309 -225.06257101 76.46491405 -207.63671875 45.046875 C-205.93287617 42.08256414 -205.93287617 42.08256414 -205 39 C-204.34 39 -203.68 39 -203 39 C-202.73316406 38.42507812 -202.46632812 37.85015625 -202.19140625 37.2578125 C-197.9848123 29.28597216 -191.08965675 22.5496668 -185 16 C-184.44828125 15.39414062 -183.8965625 14.78828125 -183.328125 14.1640625 C-138.33792707 -33.2760967 -51.50526366 -41.10436227 0 0 Z " fill="#03A339" transform="translate(227,26)"/>
<path d="M0 0 C32.31952298 -0.87613165 66.04510836 5.28640311 92 26 C93.23169767 26.93670694 94.46490359 27.87143238 95.69921875 28.8046875 C97.00890327 29.80586639 98.3174992 30.80847093 99.625 31.8125 C100.25462646 32.29323975 100.88425293 32.77397949 101.53295898 33.26928711 C103.06034392 34.46541659 104.53555977 35.72758291 106 37 C106 37.66 106 38.32 106 39 C106.556875 39.226875 107.11375 39.45375 107.6875 39.6875 C110.66159588 41.37550036 112.72008865 43.46676517 115 46 C115 46.66 115 47.32 115 48 C115.59981689 48.2570874 116.19963379 48.5141748 116.81762695 48.77905273 C119.21842709 50.1222009 120.29967178 51.33036989 121.91796875 53.53515625 C122.44583984 54.25348633 122.97371094 54.97181641 123.51757812 55.71191406 C124.06865234 56.48760742 124.61972656 57.26330078 125.1875 58.0625 C125.76048828 58.86526367 126.33347656 59.66802734 126.92382812 60.49511719 C135.33285449 72.51541076 141.59239215 85.00759411 146 99 C146.42539062 100.2684375 146.42539062 100.2684375 146.859375 101.5625 C155.60256808 128.68424181 155.60924357 158.86400189 147 186 C146.60554688 187.35158203 146.60554688 187.35158203 146.203125 188.73046875 C141.09450356 205.33348844 132.82314394 220.42270326 121.796875 233.80859375 C119.97659504 235.97405947 119.97659504 235.97405947 118.390625 238.28515625 C117.93171875 238.85105469 117.4728125 239.41695312 117 240 C116.34 240 115.68 240 115 240 C114.773125 240.556875 114.54625 241.11375 114.3125 241.6875 C112.62449964 244.66159588 110.53323483 246.72008865 108 249 C107.34 249 106.68 249 106 249 C105.75088867 249.59619141 105.50177734 250.19238281 105.24511719 250.80664062 C103.81276494 253.3298274 102.43850858 254.42670888 100.078125 256.09375 C99.29953125 256.64933594 98.5209375 257.20492188 97.71875 257.77734375 C96.9040625 258.34582031 96.089375 258.91429687 95.25 259.5 C94.05117187 260.35271484 94.05117187 260.35271484 92.828125 261.22265625 C90.56140037 262.82949559 88.28888173 264.42487647 86 266 C85.05157227 266.69270996 84.10314453 267.38541992 83.12597656 268.09912109 C77.62518809 271.44410227 71.83193765 271.88534189 65.5 272.125 C64.79489288 272.15256378 64.08978577 272.18012756 63.36331177 272.20852661 C50.4616389 272.30508926 42.82800575 266.612249 33.72390747 257.93353271 C25.07189195 249.34223203 16.89517322 240.28803848 9 231 C10.25067166 227.24798503 12.12211067 225.67710635 15 223 C15.5775 222.401875 16.155 221.80375 16.75 221.1875 C20.39736496 219.26250183 23.98217916 219.22235726 28 220 C30.77518823 222.22015058 32.59269353 224.42037156 34.625 227.3125 C38.69713088 230.20585615 43.19193936 229.7717405 48 229 C55.18665042 225.60834622 61.20480823 218.87685498 65 212 C67.63899568 203.21707333 66.9366124 193.99250911 66.5625 184.9375 C66.52536147 182.50987292 66.49600775 180.08211372 66.47460938 177.65429688 C66.42030003 171.75871543 66.20742899 165.89996487 66 160 C77.88 160 89.76 160 102 160 C102 156.37 102 152.74 102 149 C100.68 149 99.36 149 98 149 C98.33 151.64 98.66 154.28 99 157 C88.11 157 77.22 157 66 157 C66 145.78 66 134.56 66 123 C76.89 123 87.78 123 99 123 C99 123.66 99 124.32 99 125 C100.485 125.495 100.485 125.495 102 126 C102 125.01 102 124.02 102 123 C102.66 123 103.32 123 104 123 C104 122.01 104 121.02 104 120 C91.46 120 78.92 120 66 120 C66 108.45 66 96.9 66 85 C64.02 84.01 64.02 84.01 62 83 C60.46779263 81.73576404 58.97920598 80.41790036 57.52270508 79.06713867 C56.20663017 77.84766792 56.20663017 77.84766792 54.8639679 76.6035614 C51.39372452 73.32710941 47.94040979 70.0339932 44.51262379 66.71313 C41.92025591 64.2022882 39.31273252 61.71440223 36.65454102 59.27319336 C17.07779598 41.25831917 17.07779598 41.25831917 16.53668213 30.31011963 C16.59917136 27.65623785 16.74216696 25.02118948 16.92016602 22.37280273 C17.12027166 19.16972772 17.05298539 18.11167778 15.62866211 15.10961914 C13.71982669 13.05789169 11.87760749 11.50869483 9.5625 9.9375 C8.18557993 8.86741449 6.8117477 7.79334094 5.44140625 6.71484375 C4.52403687 6.06696899 4.52403687 6.06696899 3.58813477 5.40600586 C1.75633301 3.78427699 0.95719885 2.23207458 0 0 Z " fill="#04A339" transform="translate(135,0)"/>
<path d="M0 0 C1.26360352 -0.01722107 2.52720703 -0.03444214 3.82910156 -0.05218506 C6.47086968 -0.06430214 9.11320231 -0.03200414 11.75390625 0.04394531 C15.75463882 0.14073723 19.71912019 0.0447211 23.71875 -0.0703125 C26.31257861 -0.05841531 28.90638496 -0.03534718 31.5 0 C33.24458496 -0.05465424 33.24458496 -0.05465424 35.02441406 -0.1104126 C44.72094771 0.3714378 51.18935861 5.39126376 57.88840199 12.09144115 C66.88988335 22.53702279 66.24029489 34.39960425 65.87147498 47.56432652 C65.79114703 51.04721833 65.80829102 54.5299048 65.8117218 58.01353455 C65.80335451 63.84903705 65.72605363 69.68026626 65.60229492 75.5144043 C65.46021328 82.23669959 65.41333413 88.95435511 65.4199149 95.67804343 C65.42601214 102.88416092 65.36352378 110.08851923 65.28089547 117.29410243 C65.26181787 119.35258661 65.25533995 121.41078273 65.25174522 123.469347 C65.2409482 127.31331667 65.1532848 131.1535089 65.05737305 134.99633789 C65.06349106 136.68669914 65.06349106 136.68669914 65.06973267 138.41120911 C64.79490635 145.96444418 62.71652658 149.59835602 57.20989704 154.74774837 C53.65126436 157.12443096 50.68003722 157.64832754 46.45579529 157.2563324 C41.17040293 155.56529417 37.78143479 151.93735572 34.75 147.390625 C33.60206501 142.84689648 33.74365339 138.54785326 33.93359375 133.88671875 C33.94786156 131.96993065 33.94786156 131.96993065 33.9624176 130.01441956 C33.99467461 125.95030004 34.08353147 121.89083985 34.1875 117.828125 C34.28760572 113.76205185 34.36855515 109.69843066 34.40187073 105.63111877 C34.42256162 103.1073579 34.47957089 100.58355634 34.57798767 98.06163025 C34.62927204 91.93069542 34.33301513 88.18816 30.01196289 83.62133789 C25.56598189 79.6348442 21.55601404 79.17949722 15.75 79.390625 C14.89921875 79.3596875 14.0484375 79.32875 13.171875 79.296875 C8.2794171 79.35690516 5.16005236 80.32882143 1.48803711 83.62133789 C-2.83301513 88.18816 -3.12927204 91.93069542 -3.07798767 98.06163025 C-3.03033768 99.28265945 -2.98268768 100.50368866 -2.93359375 101.76171875 C-2.91209955 104.38346346 -2.89061548 107.00520826 -2.86914062 109.62695312 C-2.80644286 113.04793756 -2.72229749 116.46836461 -2.63476562 119.88879395 C-2.51778343 124.55505284 -2.46833866 129.21896384 -2.43359375 133.88671875 C-2.38391953 135.10572372 -2.3342453 136.3247287 -2.2830658 137.58067322 C-2.24634679 144.12336103 -2.87121831 147.81621306 -7.45727539 152.66430664 C-10.77427216 155.70467025 -13.24499601 157.0975761 -17.75 157.515625 C-23.58190097 156.82950829 -26.40943006 154.29105538 -30.35343361 150.11697197 C-33.68698528 145.32493382 -33.57796735 140.68639001 -33.55737305 134.99633789 C-33.58760056 133.78523346 -33.61782806 132.57412903 -33.64897156 131.32632446 C-33.71950975 128.0246017 -33.74954737 124.7279734 -33.75531363 121.42585301 C-33.76174802 119.3538544 -33.78102993 117.28237661 -33.80478859 115.21050835 C-33.8879112 107.95339427 -33.92482792 100.69775981 -33.91772461 93.44018555 C-33.91233514 86.72171832 -34.00693482 80.00979712 -34.14941758 73.29298407 C-34.268031 67.49014268 -34.31534191 61.68941092 -34.30962592 55.88537019 C-34.30735452 52.43408734 -34.33157249 48.98861316 -34.42822838 45.53856087 C-34.71952262 32.94305297 -34.95760192 22.0353908 -26.38840199 12.09144115 C-18.44213526 4.14382928 -11.46044041 -0.35903188 0 0 Z " fill="#131313" transform="translate(128.25,64.609375)"/>
<path d="M0 0 C1.47265625 1.53125 1.47265625 1.53125 3.0625 3.5 C5.13627694 6.04448434 6.91625872 7.94322415 9.64453125 9.79296875 C12.84574238 12.01412383 14.80917086 13.74833763 17 17 C17.11747805 19.29621567 16.86399573 21.44057167 16.61729431 23.72564697 C15.905673 31.8179082 17.08860505 37.51968629 22.25097656 43.91479492 C27.39158945 49.72671527 33.10351118 55.00054594 38.81237793 60.24395752 C41.53848861 62.7703145 44.20402707 65.3590578 46.87695312 67.94140625 C55.28769126 76.91710983 55.28769126 76.91710983 65 84 C65 95.55 65 107.1 65 119 C77.54 119 90.08 119 103 119 C103 119.99 103 120.98 103 122 C102.34 122 101.68 122 101 122 C101 122.99 101 123.98 101 125 C99.68 124.67 98.36 124.34 97 124 C97.33 123.34 97.66 122.68 98 122 C87.11 122 76.22 122 65 122 C65 133.22 65 144.44 65 156 C75.89 156 86.78 156 98 156 C97.67 153.36 97.34 150.72 97 148 C98.32 148 99.64 148 101 148 C101 151.63 101 155.26 101 159 C89.12 159 77.24 159 65 159 C65.31324219 164.31738281 65.31324219 164.31738281 65.6328125 169.7421875 C65.773828 173.23717363 65.88273831 176.73182471 65.98876953 180.22802734 C66.07844129 182.62859506 66.20065372 185.02820374 66.35791016 187.42529297 C67.67890658 208.10363568 67.67890658 208.10363568 61.29980469 216.71191406 C51.09920598 228.23721979 51.09920598 228.23721979 44.07452393 229.54437256 C37.19573289 229.75892047 37.19573289 229.75892047 33.98019409 227.7180481 C32.3125 226.125 32.3125 226.125 30 223 C30 222.34 30 221.68 30 221 C25.94787981 219.64929327 22.23238809 219.31326331 18 220 C15.14515489 222.27110728 15.14515489 222.27110728 13 225 C10.6875 226.3125 10.6875 226.3125 9 227 C10.54990969 235.63189769 20.31391139 243.08388635 26.125 249.1875 C26.92490356 250.02825073 27.72480713 250.86900146 28.5489502 251.73522949 C37.76153187 261.21006815 45.86398933 269.35040647 59.61669922 269.88012695 C65.49048525 269.79522775 71.24509401 269.21324982 77 268 C77 268.66 77 269.32 77 270 C43.17300086 285.77810261 43.17300086 285.77810261 28 285 C28.0616333 283.36115845 28.0616333 283.36115845 28.12451172 281.68920898 C27.239375 274.86257564 21.66569797 270.59800555 17.0078125 265.97265625 C15.98103747 264.93352856 14.95508013 263.89359233 13.92990112 262.85289001 C11.78101699 260.6802091 9.61929008 258.52137466 7.44824219 256.37084961 C4.68071097 253.62637353 1.95363761 250.84528789 -0.7642498 248.05175114 C-2.87272823 245.89522694 -5.004169 243.76257632 -7.14273453 241.63592339 C-8.15751781 240.62027242 -9.16459904 239.59685995 -10.16332626 238.56541634 C-16.86564221 231.57269329 -16.86564221 231.57269329 -25.89428711 229.06616211 C-26.79846375 229.06422348 -27.70264038 229.06228485 -28.63421631 229.06028748 C-33.85867789 228.92715206 -37.15972891 224.96831845 -40.6875 221.5 C-41.48333496 220.72350098 -42.27916992 219.94700195 -43.09912109 219.14697266 C-49.25276507 212.36069875 -50.50329962 206.40090918 -50.125 197.375 C-49.75375 193.62125 -49.3825 189.8675 -49 186 C-63.85 186 -78.7 186 -94 186 C-94 185.01 -94 184.02 -94 183 C-79.15 183 -64.3 183 -49 183 C-49 160.56 -49 138.12 -49 115 C-63.85 115 -78.7 115 -94 115 C-94 114.01 -94 113.02 -94 112 C-79.15 112 -64.3 112 -49 112 C-49.53625 108.08125 -50.0725 104.1625 -50.625 100.125 C-51.17039213 91.76352463 -50.2518889 85.77341298 -44.9152832 79.33184814 C-38.96019224 72.75463875 -32.30588311 66.86434123 -25.50024414 61.18530273 C-22.9669044 59.24975756 -22.9669044 59.24975756 -22 57 C-20.3348616 56.92566346 -18.66666667 56.91666667 -17 56.9375 C-10.82440646 56.46928506 -7.67366258 54.21521081 -3.66796875 49.58203125 C-1.4517714 46.151337 -0.4808718 43.8428651 -0.8515625 39.74609375 C-3.59304828 33.19077232 -9.74728092 28.57653246 -15 24 C-15.77988281 23.30648438 -16.55976562 22.61296875 -17.36328125 21.8984375 C-18.6222305 20.79338786 -19.89369323 19.70236172 -21.1796875 18.62890625 C-23.26781105 16.76034934 -25.0642488 14.70761457 -26.9375 12.625 C-29.86963228 9.60542839 -31.79872777 8.46023327 -36 8 C-37.32 8 -38.64 8 -40 8 C-31.32892269 2.21928179 -10.43748336 -3.47916112 0 0 Z M-40 84 C-42.79045547 92.78873528 -42.37697435 102.05386234 -42.12147498 111.17370152 C-42.04114703 114.65659333 -42.05829102 118.1392798 -42.0617218 121.62290955 C-42.05335451 127.45841205 -41.97605363 133.28964126 -41.85229492 139.1237793 C-41.71021328 145.84607459 -41.66333413 152.56373011 -41.6699149 159.28741843 C-41.67601214 166.49353592 -41.61352378 173.69789423 -41.53089547 180.90347743 C-41.51181787 182.96196161 -41.50533995 185.02015773 -41.50174522 187.078722 C-41.4909482 190.92269167 -41.4032848 194.7628839 -41.30737305 198.60571289 C-41.31145172 199.73262039 -41.3155304 200.85952789 -41.31973267 202.02058411 C-41.04490635 209.57381918 -38.96652658 213.20773102 -33.45989704 218.35712337 C-29.90126436 220.73380596 -26.93003722 221.25770254 -22.70579529 220.8657074 C-17.42040293 219.17466917 -14.03143479 215.54673072 -11 211 C-9.85206501 206.45627148 -9.99365339 202.15722826 -10.18359375 197.49609375 C-10.19310562 196.21823502 -10.20261749 194.94037628 -10.2124176 193.62379456 C-10.24467461 189.55967504 -10.33353147 185.50021485 -10.4375 181.4375 C-10.53760572 177.37142685 -10.61855515 173.30780566 -10.65187073 169.24049377 C-10.67256162 166.7167329 -10.72957089 164.19293134 -10.82798767 161.67100525 C-10.87927204 155.54007042 -10.58301513 151.797535 -6.26196289 147.23071289 C-1.81598189 143.2442192 2.19398596 142.78887222 8 143 C8.85078125 142.9690625 9.7015625 142.938125 10.578125 142.90625 C15.4705829 142.96628016 18.58994764 143.93819643 22.26196289 147.23071289 C26.58301513 151.797535 26.87927204 155.54007042 26.82798767 161.67100525 C26.75651268 163.50254906 26.75651268 163.50254906 26.68359375 165.37109375 C26.66209955 167.99283846 26.64061548 170.61458326 26.61914062 173.23632812 C26.55644286 176.65731256 26.47229749 180.07773961 26.38476562 183.49816895 C26.26778343 188.16442784 26.21833866 192.82833884 26.18359375 197.49609375 C26.10908241 199.32460121 26.10908241 199.32460121 26.0330658 201.19004822 C25.99634679 207.73273603 26.62121831 211.42558806 31.20727539 216.27368164 C34.52427216 219.31404525 36.99499601 220.7069511 41.5 221.125 C47.33190097 220.43888329 50.15943006 217.90043038 54.10343361 213.72634697 C57.43698528 208.93430882 57.32796735 204.29576501 57.30737305 198.60571289 C57.33760056 197.39460846 57.36782806 196.18350403 57.39897156 194.93569946 C57.46950975 191.6339767 57.49954737 188.3373484 57.50531363 185.03522801 C57.51174802 182.9632294 57.53102993 180.89175161 57.55478859 178.81988335 C57.6379112 171.56276927 57.67482792 164.30713481 57.66772461 157.04956055 C57.66233514 150.33109332 57.75693482 143.61917212 57.89941758 136.90235907 C58.018031 131.09951768 58.06534191 125.29878592 58.05962592 119.49474519 C58.05735452 116.04346234 58.08157249 112.59798816 58.17822838 109.14793587 C58.46952262 96.55242797 58.70760192 85.6447658 50.13840199 75.70081615 C43.43935861 69.00063876 36.97094771 63.9808128 27.27441406 63.4989624 C25.5298291 63.55361664 25.5298291 63.55361664 23.75 63.609375 C21.85459473 63.5835434 21.85459473 63.5835434 19.92089844 63.55718994 C17.27913032 63.54507286 14.63679769 63.57737086 11.99609375 63.65332031 C7.99536118 63.75011223 4.03087981 63.6540961 0.03125 63.5390625 C-2.56257861 63.55095969 -5.15638496 63.57402782 -7.75 63.609375 C-8.91305664 63.57293884 -10.07611328 63.53650269 -11.27441406 63.4989624 C-23.8123477 64.12201065 -34.09791055 73.33086105 -40 84 Z " fill="#00C95A" transform="translate(136,1)"/>
<path d="M0 0 C13.86 0 27.72 0 42 0 C42 3.3 42 6.6 42 10 C37.71 10 33.42 10 29 10 C29 10.99 29 11.98 29 13 C33.29 13 37.58 13 42 13 C42 16.3 42 19.6 42 23 C37.71 23 33.42 23 29 23 C29 23.99 29 24.98 29 26 C33.29 26 37.58 26 42 26 C42 29.3 42 32.6 42 36 C37.71 36 33.42 36 29 36 C29 36.99 29 37.98 29 39 C33.29 39 37.58 39 42 39 C42 45.93 42 52.86 42 60 C41.01 60 40.02 60 39 60 C39 54.06 39 48.12 39 42 C34.71 42 30.42 42 26 42 C26 38.7 26 35.4 26 32 C29.96 32 33.92 32 38 32 C38 31.01 38 30.02 38 29 C33.71 29 29.42 29 25 29 C25 25.7 25 22.4 25 19 C29.29 19 33.58 19 38 19 C38 18.34 38 17.68 38 17 C33.71 17 29.42 17 25 17 C25 13.37 25 9.74 25 6 C29.29 6 33.58 6 38 6 C38 5.01 38 4.02 38 3 C30.41 3 22.82 3 15 3 C15 16.2 15 29.4 15 43 C13.68 43 12.36 43 11 43 C11 29.8 11 16.6 11 3 C7.37 3 3.74 3 0 3 C0 2.01 0 1.02 0 0 Z " fill="#C3BC19" transform="translate(239,120)"/>
<path d="M0 0 C1.423125 0.7425 1.423125 0.7425 2.875 1.5 C2.875 2.16 2.875 2.82 2.875 3.5 C3.76445312 3.64115234 3.76445312 3.64115234 4.671875 3.78515625 C7.36642641 4.65945219 8.33822756 5.76720318 10.125 7.9375 C10.64578125 8.55496094 11.1665625 9.17242187 11.703125 9.80859375 C12.875 11.5 12.875 11.5 12.875 13.5 C11.225 13.5 9.575 13.5 7.875 13.5 C7.875 15.15 7.875 16.8 7.875 18.5 C-7.0818202 19.57077236 -7.0818202 19.57077236 -11.96484375 17.01171875 C-13.89585417 15.27488815 -15.52932103 13.54431915 -17.125 11.5 C-17.785 10.84 -18.445 10.18 -19.125 9.5 C-19.3203125 7.3359375 -19.3203125 7.3359375 -19.25 4.875 C-19.23195312 4.05773437 -19.21390625 3.24046875 -19.1953125 2.3984375 C-19.17210937 1.77195312 -19.14890625 1.14546875 -19.125 0.5 C-13.23411366 -2.64180605 -6.07994479 -2.607456 0 0 Z " fill="#08F009" transform="translate(153.125,87.5)"/>
<path d="M0 0 C5.94 0 11.88 0 18 0 C18 9.6875 18 9.6875 15 14 C9.95516439 18.84351588 3.20968268 23 -4 23 C-4.2493357 21.39884424 -4.47378648 19.79379841 -4.6875 18.1875 C-4.81511719 17.29417969 -4.94273437 16.40085937 -5.07421875 15.48046875 C-5 13 -5 13 -3.64453125 11.17578125 C-2 10 -2 10 0 10 C0 6.7 0 3.4 0 0 Z " fill="#0305FC" transform="translate(149,111)"/>
<path d="M0 0 C0.66 0 1.32 0 2 0 C2.00257813 0.56847656 2.00515625 1.13695313 2.0078125 1.72265625 C2.29557178 7.46824985 3.58600583 10.50406516 7.52734375 14.6875 C8.98415081 16.1009269 8.98415081 16.1009269 11 17 C11.08096803 18.45742463 11.13917774 19.91612807 11.1875 21.375 C11.23970703 22.59316406 11.23970703 22.59316406 11.29296875 23.8359375 C11.19628906 24.55007812 11.09960938 25.26421875 11 26 C7.58078453 28.27947698 6.09689823 28.32513105 2.0625 28.375 C1.02222656 28.40335938 -0.01804687 28.43171875 -1.08984375 28.4609375 C-4 28 -4 28 -6.33984375 26.36328125 C-9.57335301 21.76028572 -8.85122575 16.35771502 -8 11 C-6.0121294 6.68486627 -3.34115064 3.34115064 0 0 Z " fill="#F50906" transform="translate(128,92)"/>
<path d="M0 0 C0.33 0 0.66 0 1 0 C1 3.3 1 6.6 1 10 C-3.29 10 -7.58 10 -12 10 C-12 10.99 -12 11.98 -12 13 C-7.71 13 -3.42 13 1 13 C1 16.3 1 19.6 1 23 C-3.29 23 -7.58 23 -12 23 C-12 23.99 -12 24.98 -12 26 C-7.71 26 -3.42 26 1 26 C1 29.3 1 32.6 1 36 C-3.29 36 -7.58 36 -12 36 C-12 36.99 -12 37.98 -12 39 C-7.71 39 -3.42 39 1 39 C1 45.93 1 52.86 1 60 C0.01 60 -0.98 60 -2 60 C-2 54.06 -2 48.12 -2 42 C-6.29 42 -10.58 42 -15 42 C-15 38.7 -15 35.4 -15 32 C-11.04 32 -7.08 32 -3 32 C-3 31.01 -3 30.02 -3 29 C-7.29 29 -11.58 29 -16 29 C-16 25.7 -16 22.4 -16 19 C-11.71 19 -7.42 19 -3 19 C-3 18.34 -3 17.68 -3 17 C-7.29 17 -11.58 17 -16 17 C-16 13.37 -16 9.74 -16 6 C-11.71 6 -7.42 6 -3 6 C-2.67 5.01 -2.34 4.02 -2 3 C-2 4.32 -2 5.64 -2 7 C-6.29 7 -10.58 7 -15 7 C-15 9.97 -15 12.94 -15 16 C-10.71 16 -6.42 16 -2 16 C-2 17.32 -2 18.64 -2 20 C-6.29 20 -10.58 20 -15 20 C-15 22.64 -15 25.28 -15 28 C-14.34 27.67 -13.68 27.34 -13 27 C-13 25.35 -13 23.7 -13 22 C-8.71 22 -4.42 22 0 22 C0 19.36 0 16.72 0 14 C-4.29 14 -8.58 14 -13 14 C-13 12.35 -13 10.7 -13 9 C-8.71 9 -4.42 9 0 9 C0 6.03 0 3.06 0 0 Z " fill="#92B329" transform="translate(280,120)"/>
<path d="M0 0 C0.33 0 0.66 0 1 0 C1 2.64 1 5.28 1 8 C-2.96 8 -6.92 8 -11 8 C-11 9.32 -11 10.64 -11 12 C-6.71 12 -2.42 12 2 12 C2 18.93 2 25.86 2 33 C1.01 33 0.02 33 -1 33 C-1 27.06 -1 21.12 -1 15 C-5.29 15 -9.58 15 -14 15 C-14 12.03 -14 9.06 -14 6 C-9.71 6 -5.42 6 -1 6 C-0.67 4.02 -0.34 2.04 0 0 Z " fill="#DBC20E" transform="translate(279,147)"/>
<path d="M0 0 C0.33 0 0.66 0 1 0 C1 2.64 1 5.28 1 8 C-3.29 8 -7.58 8 -12 8 C-12 9.65 -12 11.3 -12 13 C-7.71 13 -3.42 13 1 13 C1 15.64 1 18.28 1 21 C-3.29 21 -7.58 21 -12 21 C-12 22.65 -12 24.3 -12 26 C-8.7 26 -5.4 26 -2 26 C-2 26.33 -2 26.66 -2 27 C-5.96 27 -9.92 27 -14 27 C-14 24.36 -14 21.72 -14 19 C-9.71 19 -5.42 19 -1 19 C-1 17.68 -1 16.36 -1 15 C-5.29 15 -9.58 15 -14 15 C-14 12.03 -14 9.06 -14 6 C-9.71 6 -5.42 6 -1 6 C-0.67 4.02 -0.34 2.04 0 0 Z " fill="#DDC30C" transform="translate(279,121)"/>
<path d="M0 0 C2.5 0.25 2.5 0.25 4.5 2.25 C4.75 5.25 4.75 5.25 4.5 8.25 C2.5 10.25 2.5 10.25 0.0625 10.5625 C-2.5 10.25 -2.5 10.25 -4.375 9.0625 C-5.5 7.25 -5.5 7.25 -5.3125 4.6875 C-4.22827241 1.43481722 -3.47807945 0.34780795 0 0 Z " fill="#CEC013" transform="translate(37.5,180.75)"/>
<path d="M0 0 C2.5625 0.3125 2.5625 0.3125 4.4375 1.5 C5.5625 3.3125 5.5625 3.3125 5.375 5.875 C4.5625 8.3125 4.5625 8.3125 2.5625 10.3125 C0.0625 10.5625 0.0625 10.5625 -2.4375 10.3125 C-4.4375 8.3125 -4.4375 8.3125 -4.6875 5.3125 C-4.37675292 1.58353509 -3.7821044 0.48488518 0 0 Z " fill="#CEC014" transform="translate(36.4375,109.6875)"/>
<path d="M0 0 C4.29 0 8.58 0 13 0 C13 2.64 13 5.28 13 8 C6.87647862 7.63258872 4.21348564 6.21348564 0 2 C0 1.34 0 0.68 0 0 Z " fill="#F2F5F2" transform="translate(126,125)"/>
<path d="M0 0 C4.29 0 8.58 0 13 0 C13 6.93 13 13.86 13 21 C12.01 21 11.02 21 10 21 C10 14.4 10 7.8 10 1 C6.7 1 3.4 1 0 1 C0 0.67 0 0.34 0 0 Z " fill="#CBBF16" transform="translate(268,159)"/>
<path d="M0 0 C-1.3584202 3.04332765 -2.88463024 5.12309151 -5.2578125 7.453125 C-5.88300781 8.071875 -6.50820312 8.690625 -7.15234375 9.328125 C-7.80332031 9.96234375 -8.45429687 10.5965625 -9.125 11.25 C-9.78371094 11.8996875 -10.44242187 12.549375 -11.12109375 13.21875 C-12.74296643 14.81711727 -14.3693281 16.41061897 -16 18 C-16.66 17.34 -17.32 16.68 -18 16 C-15.38308836 13.32529045 -12.75518292 10.66165519 -10.125 8 C-9.00544922 6.8553125 -9.00544922 6.8553125 -7.86328125 5.6875 C-7.14785156 4.965625 -6.43242188 4.24375 -5.6953125 3.5 C-5.03547363 2.8296875 -4.37563477 2.159375 -3.69580078 1.46875 C-2 0 -2 0 0 0 Z " fill="#142318" transform="translate(115,68)"/>
<path d="M0 0 C1.32 0 2.64 0 4 0 C4 3.63 4 7.26 4 11 C2.68 11 1.36 11 0 11 C0 7.37 0 3.74 0 0 Z " fill="#7BCC70" transform="translate(233,133)"/>
<path d="M0 0 C1.21236328 0.02707031 1.21236328 0.02707031 2.44921875 0.0546875 C3.37154297 0.08949219 3.37154297 0.08949219 4.3125 0.125 C4.3125 0.455 4.3125 0.785 4.3125 1.125 C3.1575 1.125 2.0025 1.125 0.8125 1.125 C-5.03264967 1.80104044 -8.00508136 5.89799832 -11.6875 10.125 C-12.3475 10.785 -13.0075 11.445 -13.6875 12.125 C-14.0175 11.465 -14.3475 10.805 -14.6875 10.125 C-13.58783225 8.82950101 -12.48258199 7.53873929 -11.375 6.25 C-10.76011719 5.53070313 -10.14523438 4.81140625 -9.51171875 4.0703125 C-6.41712047 0.77029121 -4.40923512 -0.12780392 0 0 Z " fill="#029638" transform="translate(158.6875,219.875)"/>
<path d="M0 0 C0.66 0 1.32 0 2 0 C2 2.97 2 5.94 2 9 C1.67 9 1.34 9 1 9 C0.67 7.35 0.34 5.7 0 4 C-2.97 6.475 -2.97 6.475 -6 9 C-4.4722133 5.56247993 -2.49818944 2.81046312 0 0 Z " fill="#BA3E2A" transform="translate(128,92)"/>
<path d="M0 0 C1.32 0 2.64 0 4 0 C4 1.65 4 3.3 4 5 C2.68 5 1.36 5 0 5 C0 3.35 0 1.7 0 0 Z " fill="#001004" transform="translate(233,144)"/>
</svg>
